<?xml version="1.0" standalone="no"?>
<!DOCTYPE svg PUBLIC "-//W3C//DTD SVG 20010904//EN"
 "http://www.w3.org/TR/2001/REC-SVG-20010904/DTD/svg10.dtd">
<svg version="1.0" xmlns="http://www.w3.org/2000/svg"
 width="150pt" height="150pt" viewBox="0 0 298.000000 300.000000"
 preserveAspectRatio="xMidYMid meet">

<g transform="translate(0.000000,300.000000) scale(0.100000,-0.100000)"
fill="#f8f9fc" stroke="none">
<path d="M823 2622 c-363 -208 -668 -384 -677 -391 -14 -12 -16 -86 -16 -731
0 -670 1 -718 18 -732 25 -21 1319 -759 1343 -765 13 -4 231 115 682 372 364
208 670 385 680 393 16 14 17 62 17 732 0 670 -1 718 -17 732 -30 26 -1325
761 -1347 765 -14 2 -255 -130 -683 -375z m1308 -114 l618 -353 0 -655 0 -655
-621 -354 c-531 -303 -624 -353 -644 -345 -13 5 -296 164 -629 354 l-604 345
0 655 0 655 617 352 c339 194 623 352 630 353 8 0 292 -159 633 -352z"/>
<path d="M760 1490 l0 -710 740 0 740 0 0 710 0 710 -145 0 -145 0 -2 -532 -3
-533 -445 0 -445 0 -3 533 -2 532 -145 0 -145 0 0 -710z"/>
</g>
</svg>
